<mxfile host="app.diagrams.net" modified="2022-03-08T06:15:59.661Z" agent="5.0 (Windows NT 10.0; Win64; x64) AppleWebKit/537.36 (KHTML, like Gecko) Chrome/99.0.4844.51 Safari/537.36" etag="hB20HewPwjgVKosFK6kw" version="16.6.5" type="github">
  <diagram id="55woNCbbdrsVMhXk1Lkt" name="第 1 页">
    <mxGraphModel dx="3076" dy="706" grid="1" gridSize="10" guides="1" tooltips="1" connect="1" arrows="1" fold="1" page="1" pageScale="1" pageWidth="827" pageHeight="1169" math="0" shadow="0">
      <root>
        <mxCell id="0" />
        <mxCell id="1" parent="0" />
        <mxCell id="0lJpmbsVH_8i2ZDXafNL-1" value="" style="rounded=0;whiteSpace=wrap;html=1;" vertex="1" parent="1">
          <mxGeometry x="-960" y="120" width="1230" height="960" as="geometry" />
        </mxCell>
        <mxCell id="0lJpmbsVH_8i2ZDXafNL-2" value="" style="rounded=0;whiteSpace=wrap;html=1;" vertex="1" parent="1">
          <mxGeometry x="-947" y="140" width="157" height="900" as="geometry" />
        </mxCell>
        <mxCell id="0lJpmbsVH_8i2ZDXafNL-4" value="&lt;h1&gt;报警中心&lt;/h1&gt;&lt;div&gt;&lt;span style=&quot;white-space: pre&quot;&gt;	&lt;/span&gt;&lt;span style=&quot;white-space: pre&quot;&gt;	&lt;/span&gt;&lt;font style=&quot;font-size: 18px&quot;&gt;监控报表&lt;/font&gt;&lt;br&gt;&lt;/div&gt;" style="text;html=1;strokeColor=none;fillColor=none;spacing=5;spacingTop=-20;whiteSpace=wrap;overflow=hidden;rounded=0;" vertex="1" parent="1">
          <mxGeometry x="-947" y="340" width="147" height="120" as="geometry" />
        </mxCell>
        <mxCell id="0lJpmbsVH_8i2ZDXafNL-5" value="未恢复告警数" style="rounded=0;whiteSpace=wrap;html=1;" vertex="1" parent="1">
          <mxGeometry x="-750" y="260" width="120" height="60" as="geometry" />
        </mxCell>
        <mxCell id="0lJpmbsVH_8i2ZDXafNL-6" value="告警总数" style="rounded=0;whiteSpace=wrap;html=1;" vertex="1" parent="1">
          <mxGeometry x="-750" y="190" width="120" height="60" as="geometry" />
        </mxCell>
        <mxCell id="0lJpmbsVH_8i2ZDXafNL-8" value="自动恢复告警" style="rounded=0;whiteSpace=wrap;html=1;" vertex="1" parent="1">
          <mxGeometry x="-440" y="190" width="120" height="60" as="geometry" />
        </mxCell>
        <mxCell id="0lJpmbsVH_8i2ZDXafNL-9" value="时间选择" style="rounded=0;whiteSpace=wrap;html=1;" vertex="1" parent="1">
          <mxGeometry x="50" y="130" width="210" height="40" as="geometry" />
        </mxCell>
        <mxCell id="0lJpmbsVH_8i2ZDXafNL-12" value="" style="rounded=0;whiteSpace=wrap;html=1;" vertex="1" parent="1">
          <mxGeometry x="-770" y="520" width="970" height="280" as="geometry" />
        </mxCell>
        <mxCell id="0lJpmbsVH_8i2ZDXafNL-14" value="" style="rounded=0;whiteSpace=wrap;html=1;" vertex="1" parent="1">
          <mxGeometry x="-750" y="540" width="290" height="195" as="geometry" />
        </mxCell>
        <mxCell id="0lJpmbsVH_8i2ZDXafNL-15" value="" style="ellipse;shape=doubleEllipse;whiteSpace=wrap;html=1;aspect=fixed;fontSize=18;" vertex="1" parent="1">
          <mxGeometry x="-700" y="610" width="80" height="80" as="geometry" />
        </mxCell>
        <mxCell id="0lJpmbsVH_8i2ZDXafNL-16" value="P1 X" style="rounded=0;whiteSpace=wrap;html=1;" vertex="1" parent="1">
          <mxGeometry x="-550" y="560" width="80" height="30" as="geometry" />
        </mxCell>
        <mxCell id="0lJpmbsVH_8i2ZDXafNL-17" value="&lt;font style=&quot;font-size: 12px&quot;&gt;告警等级分布&lt;/font&gt;" style="text;strokeColor=none;fillColor=none;html=1;fontSize=24;fontStyle=1;verticalAlign=middle;align=center;" vertex="1" parent="1">
          <mxGeometry x="-740" y="545" width="100" height="40" as="geometry" />
        </mxCell>
        <mxCell id="0lJpmbsVH_8i2ZDXafNL-18" value="P2 X" style="rounded=0;whiteSpace=wrap;html=1;" vertex="1" parent="1">
          <mxGeometry x="-550" y="600" width="80" height="30" as="geometry" />
        </mxCell>
        <mxCell id="0lJpmbsVH_8i2ZDXafNL-19" value="" style="rounded=0;whiteSpace=wrap;html=1;" vertex="1" parent="1">
          <mxGeometry x="-430" y="540" width="290" height="195" as="geometry" />
        </mxCell>
        <mxCell id="0lJpmbsVH_8i2ZDXafNL-20" value="" style="ellipse;shape=doubleEllipse;whiteSpace=wrap;html=1;aspect=fixed;fontSize=18;" vertex="1" parent="1">
          <mxGeometry x="-380" y="610" width="80" height="80" as="geometry" />
        </mxCell>
        <mxCell id="0lJpmbsVH_8i2ZDXafNL-21" value="AWS X" style="rounded=0;whiteSpace=wrap;html=1;" vertex="1" parent="1">
          <mxGeometry x="-260" y="560" width="100" height="30" as="geometry" />
        </mxCell>
        <mxCell id="0lJpmbsVH_8i2ZDXafNL-22" value="&lt;font style=&quot;font-size: 12px&quot;&gt;告警来源分布&lt;/font&gt;" style="text;strokeColor=none;fillColor=none;html=1;fontSize=24;fontStyle=1;verticalAlign=middle;align=center;" vertex="1" parent="1">
          <mxGeometry x="-420" y="545" width="100" height="40" as="geometry" />
        </mxCell>
        <mxCell id="0lJpmbsVH_8i2ZDXafNL-23" value="SKYWALKING&amp;nbsp; X" style="rounded=0;whiteSpace=wrap;html=1;" vertex="1" parent="1">
          <mxGeometry x="-260" y="600" width="100" height="40" as="geometry" />
        </mxCell>
        <mxCell id="0lJpmbsVH_8i2ZDXafNL-24" value="PROMETHEUS" style="rounded=0;whiteSpace=wrap;html=1;" vertex="1" parent="1">
          <mxGeometry x="-260" y="650" width="100" height="40" as="geometry" />
        </mxCell>
        <mxCell id="0lJpmbsVH_8i2ZDXafNL-25" value="" style="rounded=0;whiteSpace=wrap;html=1;" vertex="1" parent="1">
          <mxGeometry x="-130" y="540" width="310" height="195" as="geometry" />
        </mxCell>
        <mxCell id="0lJpmbsVH_8i2ZDXafNL-26" value="&lt;span style=&quot;font-size: 12px&quot;&gt;站点分布&lt;/span&gt;" style="text;strokeColor=none;fillColor=none;html=1;fontSize=24;fontStyle=1;verticalAlign=middle;align=center;" vertex="1" parent="1">
          <mxGeometry x="-120" y="550" width="100" height="40" as="geometry" />
        </mxCell>
        <mxCell id="0lJpmbsVH_8i2ZDXafNL-27" value="" style="ellipse;shape=doubleEllipse;whiteSpace=wrap;html=1;aspect=fixed;fontSize=18;" vertex="1" parent="1">
          <mxGeometry x="-100" y="600" width="80" height="80" as="geometry" />
        </mxCell>
        <mxCell id="0lJpmbsVH_8i2ZDXafNL-28" value="东盟" style="rounded=0;whiteSpace=wrap;html=1;" vertex="1" parent="1">
          <mxGeometry x="70" y="555" width="80" height="30" as="geometry" />
        </mxCell>
        <mxCell id="0lJpmbsVH_8i2ZDXafNL-29" value="俄罗斯" style="rounded=0;whiteSpace=wrap;html=1;" vertex="1" parent="1">
          <mxGeometry x="70" y="605" width="80" height="30" as="geometry" />
        </mxCell>
        <mxCell id="0lJpmbsVH_8i2ZDXafNL-30" value="工单数" style="rounded=0;whiteSpace=wrap;html=1;" vertex="1" parent="1">
          <mxGeometry x="-590" y="190" width="120" height="60" as="geometry" />
        </mxCell>
        <mxCell id="0lJpmbsVH_8i2ZDXafNL-31" value="未关闭工单" style="rounded=0;whiteSpace=wrap;html=1;" vertex="1" parent="1">
          <mxGeometry x="-590" y="260" width="120" height="60" as="geometry" />
        </mxCell>
        <mxCell id="0lJpmbsVH_8i2ZDXafNL-34" value="" style="rounded=0;whiteSpace=wrap;html=1;fontSize=12;" vertex="1" parent="1">
          <mxGeometry x="-770" y="820" width="970" height="230" as="geometry" />
        </mxCell>
        <mxCell id="0lJpmbsVH_8i2ZDXafNL-37" value="" style="rounded=0;whiteSpace=wrap;html=1;" vertex="1" parent="1">
          <mxGeometry x="-760" y="832.5" width="290" height="195" as="geometry" />
        </mxCell>
        <mxCell id="0lJpmbsVH_8i2ZDXafNL-35" value="告警重复次数TOP10" style="rounded=0;whiteSpace=wrap;html=1;fontSize=12;" vertex="1" parent="1">
          <mxGeometry x="-740" y="890" width="120" height="60" as="geometry" />
        </mxCell>
        <mxCell id="0lJpmbsVH_8i2ZDXafNL-38" value="" style="rounded=0;whiteSpace=wrap;html=1;" vertex="1" parent="1">
          <mxGeometry x="-750" y="327.5" width="460" height="172.5" as="geometry" />
        </mxCell>
        <mxCell id="0lJpmbsVH_8i2ZDXafNL-36" value="告警发生趋势" style="rounded=0;whiteSpace=wrap;html=1;fontSize=12;" vertex="1" parent="1">
          <mxGeometry x="-730" y="350" width="120" height="60" as="geometry" />
        </mxCell>
        <mxCell id="0lJpmbsVH_8i2ZDXafNL-39" value="" style="rounded=0;whiteSpace=wrap;html=1;" vertex="1" parent="1">
          <mxGeometry x="-260" y="160" width="290" height="350" as="geometry" />
        </mxCell>
        <mxCell id="0lJpmbsVH_8i2ZDXafNL-40" value="待响应" style="rounded=0;whiteSpace=wrap;html=1;" vertex="1" parent="1">
          <mxGeometry x="-250" y="190" width="80" height="30" as="geometry" />
        </mxCell>
        <mxCell id="0lJpmbsVH_8i2ZDXafNL-41" value="&lt;font style=&quot;font-size: 12px&quot;&gt;工单进度&lt;/font&gt;" style="text;strokeColor=none;fillColor=none;html=1;fontSize=24;fontStyle=1;verticalAlign=middle;align=center;" vertex="1" parent="1">
          <mxGeometry x="-270" y="150" width="100" height="40" as="geometry" />
        </mxCell>
        <mxCell id="0lJpmbsVH_8i2ZDXafNL-42" value="处理中" style="rounded=0;whiteSpace=wrap;html=1;" vertex="1" parent="1">
          <mxGeometry x="-160" y="190" width="80" height="30" as="geometry" />
        </mxCell>
        <mxCell id="0lJpmbsVH_8i2ZDXafNL-43" value="已完毕" style="rounded=0;whiteSpace=wrap;html=1;" vertex="1" parent="1">
          <mxGeometry x="-70" y="190" width="80" height="30" as="geometry" />
        </mxCell>
        <mxCell id="0lJpmbsVH_8i2ZDXafNL-44" value="未关闭工单详情" style="rounded=0;whiteSpace=wrap;html=1;" vertex="1" parent="1">
          <mxGeometry x="-235" y="230" width="230" height="110" as="geometry" />
        </mxCell>
        <mxCell id="0lJpmbsVH_8i2ZDXafNL-45" value="" style="rounded=0;whiteSpace=wrap;html=1;" vertex="1" parent="1">
          <mxGeometry x="-455" y="832.5" width="290" height="195" as="geometry" />
        </mxCell>
        <mxCell id="0lJpmbsVH_8i2ZDXafNL-46" value="告警持续时间TOP10" style="rounded=0;whiteSpace=wrap;html=1;fontSize=12;" vertex="1" parent="1">
          <mxGeometry x="-380" y="880" width="120" height="60" as="geometry" />
        </mxCell>
      </root>
    </mxGraphModel>
  </diagram>
</mxfile>
